<mxfile host="app.diagrams.net" agent="Mozilla/5.0 (Windows NT 10.0; Win64; x64) AppleWebKit/537.36 (KHTML, like Gecko) Chrome/133.0.0.0 Safari/537.36" version="26.0.16">
  <diagram name="페이지-1" id="icTMJFXBsoF4CJpucCJ0">
    <mxGraphModel dx="966" dy="1046" grid="1" gridSize="10" guides="1" tooltips="1" connect="1" arrows="1" fold="1" page="1" pageScale="1" pageWidth="1169" pageHeight="1654" math="0" shadow="0">
      <root>
        <mxCell id="0" />
        <mxCell id="1" parent="0" />
        <mxCell id="jtR-G5dYf3ASnQ6bcEaw-21" value="" style="rounded=0;whiteSpace=wrap;html=1;strokeColor=none;" vertex="1" parent="1">
          <mxGeometry x="110" y="190" width="430" height="190" as="geometry" />
        </mxCell>
        <mxCell id="jtR-G5dYf3ASnQ6bcEaw-1" value="7" style="ellipse;whiteSpace=wrap;html=1;aspect=fixed;" vertex="1" parent="1">
          <mxGeometry x="480" y="320" width="50" height="50" as="geometry" />
        </mxCell>
        <mxCell id="jtR-G5dYf3ASnQ6bcEaw-2" value="3" style="ellipse;whiteSpace=wrap;html=1;aspect=fixed;" vertex="1" parent="1">
          <mxGeometry x="120" y="320" width="50" height="50" as="geometry" />
        </mxCell>
        <mxCell id="jtR-G5dYf3ASnQ6bcEaw-3" value="1" style="ellipse;whiteSpace=wrap;html=1;aspect=fixed;" vertex="1" parent="1">
          <mxGeometry x="120" y="200" width="50" height="50" as="geometry" />
        </mxCell>
        <mxCell id="jtR-G5dYf3ASnQ6bcEaw-4" value="2" style="ellipse;whiteSpace=wrap;html=1;aspect=fixed;" vertex="1" parent="1">
          <mxGeometry x="240" y="200" width="50" height="50" as="geometry" />
        </mxCell>
        <mxCell id="jtR-G5dYf3ASnQ6bcEaw-5" value="5" style="ellipse;whiteSpace=wrap;html=1;aspect=fixed;" vertex="1" parent="1">
          <mxGeometry x="240" y="320" width="50" height="50" as="geometry" />
        </mxCell>
        <mxCell id="jtR-G5dYf3ASnQ6bcEaw-6" value="4" style="ellipse;whiteSpace=wrap;html=1;aspect=fixed;" vertex="1" parent="1">
          <mxGeometry x="360" y="320" width="50" height="50" as="geometry" />
        </mxCell>
        <mxCell id="jtR-G5dYf3ASnQ6bcEaw-7" value="8" style="ellipse;whiteSpace=wrap;html=1;aspect=fixed;" vertex="1" parent="1">
          <mxGeometry x="480" y="200" width="50" height="50" as="geometry" />
        </mxCell>
        <mxCell id="jtR-G5dYf3ASnQ6bcEaw-9" value="6" style="ellipse;whiteSpace=wrap;html=1;aspect=fixed;" vertex="1" parent="1">
          <mxGeometry x="360" y="200" width="50" height="50" as="geometry" />
        </mxCell>
        <mxCell id="jtR-G5dYf3ASnQ6bcEaw-10" value="" style="endArrow=none;html=1;rounded=0;" edge="1" parent="1" source="jtR-G5dYf3ASnQ6bcEaw-6" target="jtR-G5dYf3ASnQ6bcEaw-1">
          <mxGeometry width="50" height="50" relative="1" as="geometry">
            <mxPoint x="440" y="500" as="sourcePoint" />
            <mxPoint x="490" y="450" as="targetPoint" />
          </mxGeometry>
        </mxCell>
        <mxCell id="jtR-G5dYf3ASnQ6bcEaw-11" value="" style="endArrow=none;html=1;rounded=0;" edge="1" parent="1" source="jtR-G5dYf3ASnQ6bcEaw-5" target="jtR-G5dYf3ASnQ6bcEaw-9">
          <mxGeometry width="50" height="50" relative="1" as="geometry">
            <mxPoint x="430" y="490" as="sourcePoint" />
            <mxPoint x="480" y="440" as="targetPoint" />
          </mxGeometry>
        </mxCell>
        <mxCell id="jtR-G5dYf3ASnQ6bcEaw-12" value="" style="endArrow=none;html=1;rounded=0;" edge="1" parent="1" source="jtR-G5dYf3ASnQ6bcEaw-3" target="jtR-G5dYf3ASnQ6bcEaw-4">
          <mxGeometry width="50" height="50" relative="1" as="geometry">
            <mxPoint x="420" y="490" as="sourcePoint" />
            <mxPoint x="470" y="440" as="targetPoint" />
          </mxGeometry>
        </mxCell>
        <mxCell id="jtR-G5dYf3ASnQ6bcEaw-13" value="" style="endArrow=none;html=1;rounded=0;" edge="1" parent="1" source="jtR-G5dYf3ASnQ6bcEaw-4" target="jtR-G5dYf3ASnQ6bcEaw-5">
          <mxGeometry width="50" height="50" relative="1" as="geometry">
            <mxPoint x="430" y="490" as="sourcePoint" />
            <mxPoint x="480" y="440" as="targetPoint" />
          </mxGeometry>
        </mxCell>
        <mxCell id="jtR-G5dYf3ASnQ6bcEaw-14" value="" style="endArrow=none;html=1;rounded=0;" edge="1" parent="1" source="jtR-G5dYf3ASnQ6bcEaw-2" target="jtR-G5dYf3ASnQ6bcEaw-3">
          <mxGeometry width="50" height="50" relative="1" as="geometry">
            <mxPoint x="420" y="490" as="sourcePoint" />
            <mxPoint x="470" y="440" as="targetPoint" />
          </mxGeometry>
        </mxCell>
        <mxCell id="jtR-G5dYf3ASnQ6bcEaw-15" value="" style="endArrow=none;html=1;rounded=0;" edge="1" parent="1" source="jtR-G5dYf3ASnQ6bcEaw-9" target="jtR-G5dYf3ASnQ6bcEaw-7">
          <mxGeometry width="50" height="50" relative="1" as="geometry">
            <mxPoint x="440" y="490" as="sourcePoint" />
            <mxPoint x="490" y="440" as="targetPoint" />
          </mxGeometry>
        </mxCell>
        <mxCell id="jtR-G5dYf3ASnQ6bcEaw-16" value="" style="endArrow=none;html=1;rounded=0;" edge="1" parent="1" source="jtR-G5dYf3ASnQ6bcEaw-2" target="jtR-G5dYf3ASnQ6bcEaw-5">
          <mxGeometry width="50" height="50" relative="1" as="geometry">
            <mxPoint x="420" y="500" as="sourcePoint" />
            <mxPoint x="470" y="450" as="targetPoint" />
          </mxGeometry>
        </mxCell>
        <mxCell id="jtR-G5dYf3ASnQ6bcEaw-19" value="" style="endArrow=none;html=1;rounded=0;" edge="1" parent="1" source="jtR-G5dYf3ASnQ6bcEaw-9" target="jtR-G5dYf3ASnQ6bcEaw-1">
          <mxGeometry width="50" height="50" relative="1" as="geometry">
            <mxPoint x="440" y="490" as="sourcePoint" />
            <mxPoint x="490" y="440" as="targetPoint" />
          </mxGeometry>
        </mxCell>
        <mxCell id="jtR-G5dYf3ASnQ6bcEaw-20" value="" style="endArrow=none;html=1;rounded=0;" edge="1" parent="1" source="jtR-G5dYf3ASnQ6bcEaw-6" target="jtR-G5dYf3ASnQ6bcEaw-5">
          <mxGeometry width="50" height="50" relative="1" as="geometry">
            <mxPoint x="430" y="500" as="sourcePoint" />
            <mxPoint x="480" y="450" as="targetPoint" />
          </mxGeometry>
        </mxCell>
      </root>
    </mxGraphModel>
  </diagram>
</mxfile>
